#!OML:ASF H:\Punching\Project 1\Capture day 1\Session 1\female.ASF
:FULLY-SPECIFIED
:DEGREES
1348
root 2.06268 14.1078 -1.5034 17.3308 4.90439 7.29851
lowerback 13.4771 1.72179 3.37711
upperback -2.77639 3.18915 2.87789
thorax -10.599 1.41703 0.499938
lowerneck -14.9273 -5.95815 0.681996
upperneck 21.074 -8.00368 -1.83455
head 8.95248 -3.87022 -1.68486
rclavicle -4.92986e-014 6.36111e-015
rhumerus 39.8068 -20.3394 -66.2444
rradius 25.7901
rwrist 4.27831
rhand -13.9156 -15.2529
rfingers 7.12502
rthumb 12.2104 -44.8764
lclavicle -4.92986e-014 6.36111e-015
lhumerus 27.6717 -42.7854 78.3955
lradius 135.914
lwrist 11.0489
lhand -21.5053 8.02423
lfingers 7.12502
lthumb 4.88644 37.9479
rfemur -17.9675 -26.5931 -0.373332
rtibia 54.9694
rfoot -31.4991 -22.4082
rtoes -22.2761
lfemur -57.9388 0.685004 -16.9903
ltibia 45.5352
lfoot -0.937484 4.55502
ltoes -5.72457
1349
root 2.04527 14.1086 -1.49702 17.2619 5.01665 7.47921
lowerback 13.4534 1.9711 3.23676
upperback -2.83174 3.48212 2.70824
thorax -10.6396 1.55801 0.330386
lowerneck -14.8791 -6.20679 0.599252
upperneck 21.0525 -8.40711 -1.48488
head 8.95139 -4.02613 -1.59921
rclavicle 1.82882e-014 6.36111e-015
rhumerus 41.1029 -23.4247 -68.4582
rradius 23.5865
rwrist 11.4237
rhand -13.5513 -13.685
rfingers 7.12502
rthumb 12.5617 -43.2873
lclavicle 1.82882e-014 6.36111e-015
lhumerus 27.8891 -42.9552 78.0938
lradius 135.944
lwrist 11.065
lhand -21.3905 7.90696
lfingers 7.12502
lthumb 4.99732 37.828
rfemur -17.8201 -26.5906 -0.505237
rtibia 55.0442
rfoot -31.605 -22.59
rtoes -22.0428
lfemur -57.6653 0.553203 -17.0875
ltibia 45.258
lfoot -0.953048 4.52156
ltoes -5.83047
1350
root 2.0281 14.1128 -1.48718 17.2178 4.9859 7.66339
lowerback 13.3991 2.19763 2.96345
upperback -2.89032 3.71971 2.53266
thorax -10.6737 1.68113 0.24234
lowerneck -14.7986 -6.3636 0.616761
upperneck 21.0202 -8.70375 -1.15075
head 8.93822 -4.12677 -1.52089
rclavicle 1.27222e-014 3.49861e-014
rhumerus 41.5519 -25.5788 -69.9375
rradius 23.0318
rwrist 17.1396
rhand -12.9254 -12.4977
rfingers 7.12502
rthumb 13.1651 -42.062
lclavicle 1.27222e-014 3.49861e-014
lhumerus 28.0372 -43.1088 77.8424
lradius 135.965
lwrist 10.9503
lhand -21.2533 7.78489
lfingers 7.12502
lthumb 5.12975 37.7028
rfemur -17.7185 -26.5 -0.648494
rtibia 55.0421
rfoot -31.6984 -22.7229
rtoes -21.8236
lfemur -57.3566 0.48082 -17.1776
ltibia 44.9603
lfoot -0.998181 4.56721
ltoes -5.98102
1351
root 2.01151 14.1203 -1.47409 17.1917 4.83691 7.82707
lowerback 13.3114 2.37002 2.56345
upperback -2.94012 3.86482 2.38933
thorax -10.6906 1.77025 0.282198
lowerneck -14.741 -6.40573 0.703321
upperneck 21.0157 -8.85162 -0.849474
head 8.93635 -4.15588 -1.44907
rclavicle -1.59028e-015 2.22639e-014
rhumerus 40.8631 -26.2217 -70.0565
rradius 24.0178
rwrist 20.3136
rhand -11.9895 -11.7484
rfingers 7.12502
rthumb 14.0671 -41.2523
lclavicle -1.59028e-015 2.22639e-014
lhumerus 28.1096 -43.1692 77.6532
lradius 135.96
lwrist 10.6749
lhand -21.1061 7.66815
lfingers 7.12502
lthumb 5.27193 37.5826
rfemur -17.646 -26.3296 -0.77803
rtibia 54.9558
rfoot -31.7671 -22.8107
rtoes -21.6381
lfemur -57.0314 0.45845 -17.2359
ltibia 44.6674
lfoot -1.06313 4.6897
ltoes -6.16011
1352
root 1.99591 14.1307 -1.45825 17.176 4.59075 7.94387
lowerback 13.188 2.48401 2.08767
upperback -2.9824 3.92116 2.27759
thorax -10.6875 1.82386 0.420097
lowerneck -14.6945 -6.3425 0.862594
upperneck 21.0523 -8.86483 -0.581677
head 8.94708 -4.11942 -1.38594
rclavicle 3.97569e-015 1.59028e-014
rhumerus 39.1337 -25.412 -68.9681
rradius 26.3491
rwrist 20.6196
rhand -10.9337 -11.3522
rfingers 7.12502
rthumb 15.0843 -40.7826
lclavicle 3.97569e-015 1.59028e-014
lhumerus 28.1099 -43.1632 77.5181
lradius 135.936
lwrist 10.2702
lhand -20.9864 7.59175
lfingers 7.12502
lthumb 5.3875 37.5033
rfemur -17.5913 -26.0871 -0.865707
rtibia 54.7812
rfoot -31.805 -22.8526
rtoes -21.4739
lfemur -56.7093 0.474043 -17.2323
ltibia 44.4094
lfoot -1.13939 4.89662
ltoes -6.36404
1353
root 1.98159 14.1437 -1.44063 17.1699 4.27196 7.98693
lowerback 13.0343 2.53284 1.58852
upperback -3.02197 3.89033 2.20254
thorax -10.6685 1.83932 0.631511
lowerneck -14.6547 -6.18009 1.09116
upperneck 21.1389 -8.7487 -0.359891
head 8.97187 -4.02119 -1.33572
rclavicle -2.22639e-014 -1.43125e-014
rhumerus 36.7907 -23.5159 -67.3219
rradius 29.8466
rwrist 18.3134
rhand -10.0865 -11.4288
rfingers 7.12502
rthumb 15.9003 -40.796
lclavicle -2.22639e-014 -1.43125e-014
lhumerus 28.0381 -43.0846 77.4398
lradius 135.9
lwrist 9.80241
lhand -20.8939 7.55012
lfingers 7.12502
lthumb 5.47675 37.4593
rfemur -17.5532 -25.7909 -0.877566
rtibia 54.5188
rfoot -31.8027 -22.8504
rtoes -21.3271
lfemur -56.4184 0.512837 -17.1314
ltibia 44.2157
lfoot -1.22313 5.18931
ltoes -6.54659
1354
root 1.9693 14.159 -1.42163 17.1638 3.8879 7.93796
lowerback 12.8562 2.51897 1.11564
upperback -3.05305 3.78436 2.16386
thorax -10.6256 1.81898 0.885249
lowerneck -14.6222 -5.92955 1.37703
upperneck 21.275 -8.51443 -0.190428
head 9.01105 -3.86788 -1.29989
rclavicle 6.04305e-014 -3.18055e-015
rhumerus 34.2465 -20.9832 -65.7279
rradius 34.3424
rwrist 13.8736
rhand -9.7689 -12.0231
rfingers 7.12502
rthumb 16.2062 -41.3656
lclavicle 6.04305e-014 -3.18055e-015
lhumerus 27.9186 -42.9446 77.401
lradius 135.872
lwrist 9.35943
lhand -20.8586 7.57442
lfingers 7.12502
lthumb 5.51091 37.4828
rfemur -17.5245 -25.4524 -0.798447
rtibia 54.1691
rfoot -31.7502 -22.8059
rtoes -21.1926
lfemur -56.1615 0.565631 -16.9091
ltibia 44.1094
lfoot -1.32442 5.57158
ltoes -6.68747
1355
root 1.95965 14.1766 -1.40145 17.1539 3.43106 7.78864
lowerback 12.662 2.45194 0.700361
upperback -3.07451 3.62112 2.15793
thorax -10.5585 1.76888 1.15517
lowerneck -14.6004 -5.60384 1.70534
upperneck 21.4602 -8.17629 -0.0744496
head 9.06623 -3.66734 -1.27822
rclavicle 7.51406e-014 -6.36111e-015
rhumerus 31.7389 -18.1637 -64.5103
rradius 39.6597
rwrist 7.7991
rhand -10.2162 -13.181
rfingers 7.12502
rthumb 15.7755 -42.5581
lclavicle 7.51406e-014 -6.36111e-015
lhumerus 27.7664 -42.747 77.4008
lradius 135.856
lwrist 9.01724
lhand -20.8817 7.64289
lfingers 7.12502
lthumb 5.4886 37.5518
rfemur -17.5086 -25.0771 -0.623888
rtibia 53.7336
rfoot -31.6401 -22.7148
rtoes -21.0541
lfemur -55.937 0.632175 -16.5532
ltibia 44.103
lfoot -1.45561 6.04749
ltoes -6.76773
1356
root 1.95321 14.1963 -1.38004 17.134 2.89186 7.5317
lowerback 12.4595 2.34293 0.370902
upperback -3.08252 3.41947 2.17884
thorax -10.465 1.69566 1.41414
lowerneck -14.5897 -5.21295 2.07641
upperneck 21.6854 -7.74704 -0.0157349
head 9.13498 -3.42608 -1.2733
rclavicle 1.66979e-014 1.59028e-015
rhumerus 29.3652 -15.3357 -63.7803
rradius 45.5917
rwrist 0.679429
rhand -11.3805 -14.7079
rfingers 7.12502
rthumb 14.6539 -44.1701
lclavicle 1.66979e-014 1.59028e-015
lhumerus 27.5968 -42.5111 77.4246
lradius 135.869
lwrist 8.83612
lhand -20.9616 7.74521
lfingers 7.12502
lthumb 5.4114 37.6561
rfemur -17.5038 -24.661 -0.349558
rtibia 53.2115
rfoot -31.4699 -22.5825
rtoes -20.8827
lfemur -55.7303 0.714969 -16.0545
ltibia 44.1975
lfoot -1.62948 6.61737
ltoes -6.79153
1357
root 1.95048 14.2183 -1.35695 17.0981 2.25747 7.17257
lowerback 12.2583 2.20316 0.135248
upperback -3.07269 3.19446 2.21933
thorax -10.3449 1.60545 1.64572
lowerneck -14.5959 -4.76569 2.48244
upperneck 21.9453 -7.23944 -0.00363061
head 9.21841 -3.14958 -1.28185
rclavicle -2.78299e-014 -2.54444e-014
rhumerus 27.1443 -12.6899 -63.5291
rradius 51.9163
rwrist -6.84656
rhand -12.8701 -16.3096
rfingers 7.12502
rthumb 13.2184 -45.8706
lclavicle -2.78299e-014 -2.54444e-014
lhumerus 27.4272 -42.2205 77.4761
lradius 135.901
lwrist 8.91833
lhand -21.0433 7.76926
lfingers 7.12502
lthumb 5.33254 37.6822
rfemur -17.5035 -24.2028 0.0104595
rtibia 52.6047
rfoot -31.2408 -22.4062
rtoes -20.663
lfemur -55.5164 0.822927 -15.4249
ltibia 44.384
lfoot -1.85754 7.27574
ltoes -6.75667
1358
root 1.95153 14.2425 -1.33194 17.0501 1.51281 6.7195
lowerback 12.0632 2.04004 -0.0162531
upperback -3.04962 2.95357 2.27441
thorax -10.2075 1.50219 1.84768
lowerneck -14.6097 -4.26331 2.92726
upperneck 22.2353 -6.65706 -0.0320064
head 9.31468 -2.83879 -1.30235
rclavicle 4.96962e-014 1.11319e-014
rhumerus 25.0395 -10.2924 -63.6753
rradius 58.4022
rwrist -14.2012
rhand -14.2884 -17.7972
rfingers 7.12502
rthumb 11.851 -47.4419
lclavicle 4.96962e-014 1.11319e-014
lhumerus 27.2608 -41.8917 77.537
lradius 135.954
lwrist 9.21841
lhand -21.1309 7.74425
lfingers 7.12502
lthumb 5.24798 37.6593
rfemur -17.5129 -23.6884 0.447359
rtibia 51.914
rfoot -30.9576 -22.1946
rtoes -20.37
lfemur -55.2793 0.97181 -14.6842
ltibia 44.6483
lfoot -2.13919 8.01472
ltoes -6.71591
1359
root 1.9561 14.2688 -1.30592 17.0052 0.637109 6.17824
lowerback 11.8811 1.85568 -0.11164
upperback -3.01359 2.69538 2.35092
thorax -10.0593 1.38719 2.04297
lowerneck -14.6571 -3.69716 3.40635
upperneck 22.5619 -5.98859 -0.0988203
head 9.43291 -2.48834 -1.33277
rclavicle 3.81667e-014 1.90833e-014
rhumerus 23.0369 -8.11667 -64.135
rradius 64.8379
rwrist -20.8468
rhand -15.3458 -19.107
rfingers 7.12502
rthumb 10.8312 -48.8077
lclavicle 3.81667e-014 1.90833e-014
lhumerus 27.1121 -41.4896 77.5931
lradius 136.014
lwrist 9.70268
lhand -21.1986 7.65795
lfingers 7.12502
lthumb 5.18255 37.5746
rfemur -17.5655 -23.0911 0.964386
rtibia 51.1474
rfoot -30.6115 -21.9738
rtoes -20.0165
lfemur -55.0193 1.18775 -13.8494
ltibia 44.9723
lfoot -2.46974 8.82608
ltoes -6.62913
1360
root 1.96471 14.297 -1.27761 16.9737 -0.370776 5.58866
lowerback 11.6917 1.67116 -0.154
upperback -2.97969 2.4429 2.40224
thorax -9.90417 1.27015 2.17847
lowerneck -14.6798 -3.09433 3.96207
upperneck 22.9111 -5.28506 -0.178906
head 9.55784 -2.11631 -1.37542
rclavicle 3.1408e-014 3.97569e-014
rhumerus 21.0096 -6.17269 -64.8289
rradius 71.0708
rwrist -26.3465
rhand -15.9509 -20.2064
rfingers 7.12502
rthumb 10.2475 -49.9368
lclavicle 3.1408e-014 3.97569e-014
lhumerus 26.974 -41.117 77.6277
lradius 136.084
lwrist 10.3196
lhand -21.2476 7.54372
lfingers 7.12502
lthumb 5.13529 37.4615
rfemur -17.6478 -22.4336 1.50423
rtibia 50.3096
rfoot -30.2202 -21.7218
rtoes -19.5986
lfemur -54.7219 1.47205 -12.9814
ltibia 45.3375
lfoot -2.84973 9.69481
ltoes -6.51383
